<svg width="16" height="16" viewBox="0 0 16 16" fill="none" xmlns="http://www.w3.org/2000/svg">
<path d="M11.2688 11.7582L11.2688 11.7582C11.5628 12.0073 12.0025 11.9703 12.2509 11.6771L11.2688 11.7582ZM11.2688 11.7582C10.9752 11.5094 10.9388 11.0696 11.1877 10.776L11.3021 10.873L11.1877 10.776L12.9498 8.69688H3.5653C3.18043 8.69688 2.86831 8.38494 2.86831 8C2.86831 7.61506 3.18043 7.30312 3.5653 7.30312H12.9498L11.1877 5.22397L11.3021 5.12698L11.1877 5.22396C10.9388 4.93036 10.9752 4.4906 11.2688 4.2418C11.5623 3.99302 12.0021 4.02918 12.2509 4.32291C12.2509 4.32292 12.251 4.32293 12.251 4.32294L14.9855 7.54944L11.2688 11.7582ZM14.9855 8.45055L12.251 11.6771L14.9855 7.54947C15.2014 7.80405 15.2082 8.18785 14.9855 8.45053C14.9855 8.45054 14.9855 8.45054 14.9855 8.45055ZM1.54688 0.85H6.29978C6.68469 0.85 6.99666 1.16197 6.99666 1.54688C6.99666 1.93178 6.68469 2.24375 6.29978 2.24375H2.24386V13.7563H6.29978C6.68469 13.7563 6.99666 14.0682 6.99666 14.4531C6.99666 14.838 6.68469 15.15 6.29978 15.15H1.54688C1.1621 15.15 0.85 14.838 0.85 14.4531V1.54688C0.85 1.16195 1.1621 0.85 1.54688 0.85Z" fill="white" stroke="white" stroke-width="0.3"/>
</svg>
